# Blender v2.79 (sub 0) OBJ File: ''
# www.blender.org
mtllib cylinder.mtl
o Cylinder
v 0.000000 -1.000000 3.000000
v 0.000000 -1.000000 -3.000000
v 0.195090 -0.980785 -3.000000
v 0.195090 -0.980785 3.000000
v 0.382683 -0.923879 -3.000000
v 0.382683 -0.923880 3.000000
v 0.555570 -0.831470 -3.000000
v 0.555570 -0.831470 3.000000
v 0.707107 -0.707107 -3.000000
v 0.707107 -0.707107 3.000000
v 0.831470 -0.555570 -3.000000
v 0.831470 -0.555570 3.000000
v 0.923880 -0.382683 -3.000000
v 0.923880 -0.382683 3.000000
v 0.980785 -0.195090 -3.000000
v 0.980785 -0.195090 3.000000
v 1.000000 0.000000 -3.000000
v 1.000000 -0.000000 3.000000
v 0.980785 0.195090 -3.000000
v 0.980785 0.195090 3.000000
v 0.923880 0.382683 -3.000000
v 0.923880 0.382683 3.000000
v 0.831470 0.555570 -3.000000
v 0.831470 0.555570 3.000000
v 0.707107 0.707107 -3.000000
v 0.707107 0.707107 3.000000
v 0.555570 0.831470 -3.000000
v 0.555570 0.831470 3.000000
v 0.382683 0.923880 -3.000000
v 0.382683 0.923880 3.000000
v 0.195090 0.980785 -3.000000
v 0.195090 0.980785 3.000000
v 0.000000 1.000000 -3.000000
v 0.000000 1.000000 3.000000
v -0.195091 0.980785 -3.000000
v -0.195091 0.980785 3.000000
v -0.382684 0.923879 -3.000000
v -0.382684 0.923879 3.000000
v -0.555571 0.831469 -3.000000
v -0.555571 0.831469 3.000000
v -0.707107 0.707106 -3.000000
v -0.707107 0.707106 3.000000
v -0.831470 0.555570 -3.000000
v -0.831470 0.555570 3.000000
v -0.923880 0.382683 -3.000000
v -0.923880 0.382683 3.000000
v -0.980785 0.195090 -3.000000
v -0.980785 0.195089 3.000000
v -1.000000 -0.000001 -3.000000
v -1.000000 -0.000001 3.000000
v -0.980785 -0.195091 -3.000000
v -0.980785 -0.195091 3.000000
v -0.923879 -0.382684 -3.000000
v -0.923879 -0.382685 3.000000
v -0.831469 -0.555571 -3.000000
v -0.831469 -0.555571 3.000000
v -0.707106 -0.707108 -3.000000
v -0.707106 -0.707108 3.000000
v -0.555569 -0.831470 -3.000000
v -0.555569 -0.831470 3.000000
v -0.382682 -0.923880 -3.000000
v -0.382682 -0.923880 3.000000
v -0.195089 -0.980785 -3.000000
v -0.195089 -0.980786 3.000000
vt 0.221046 0.000000
vt 0.250000 0.000000
vt 0.250000 1.000000
vt 0.221046 1.000000
vt 0.274623 0.000000
vt 0.274623 1.000000
vt 0.524623 0.000000
vt 0.553576 0.000000
vt 0.553576 1.000000
vt 0.524623 1.000000
vt 0.585747 0.000000
vt 0.585748 1.000000
vt 0.619900 0.000000
vt 0.619900 1.000000
vt 0.654722 0.000000
vt 0.654722 1.000000
vt 0.688875 0.000000
vt 0.688875 1.000000
vt 0.721046 0.000000
vt 0.721046 1.000000
vt 0.750000 0.000000
vt 0.750000 1.000000
vt 0.774623 0.000000
vt 0.774623 1.000000
vt 0.803576 0.000000
vt 0.803576 1.000000
vt 0.835747 0.000000
vt 0.835747 1.000000
vt 0.869900 0.000000
vt 0.869900 1.000000
vt 0.904722 0.000000
vt 0.904722 1.000000
vt 0.938875 0.000000
vt 0.938875 1.000000
vt 0.971047 0.000000
vt 0.971046 1.000000
vt 1.000000 0.000000
vt 1.000000 1.000000
vt 0.274623 0.000000
vt 0.299246 0.000000
vt 0.299246 1.000000
vt 0.274623 1.000000
vt 0.328199 0.000000
vt 0.328199 1.000000
vt 0.360370 0.000000
vt 0.360370 1.000000
vt 0.394523 0.000000
vt 0.394523 1.000000
vt 0.429345 0.000000
vt 0.429345 1.000000
vt 0.463498 0.000000
vt 0.463498 1.000000
vt 0.495669 0.000000
vt 0.495669 1.000000
vt 0.524623 0.000000
vt 0.524623 1.000000
vt 0.000000 0.000000
vt 0.024623 0.000000
vt 0.024623 1.000000
vt 0.000000 1.000000
vt 0.053576 0.000000
vt 0.053576 1.000000
vt 0.085748 0.000000
vt 0.085748 1.000000
vt 0.119901 0.000000
vt 0.119900 1.000000
vt 0.154723 0.000000
vt 0.154722 1.000000
vt 0.188875 0.000000
vt 0.188875 1.000000
vn -0.0980 0.9952 0.0000
vn -0.2903 0.9569 0.0000
vn -0.4714 0.8819 0.0000
vn -0.6344 0.7730 0.0000
vn -0.7730 0.6344 0.0000
vn -0.8819 0.4714 0.0000
vn -0.9569 0.2903 0.0000
vn -0.9952 0.0980 0.0000
vn -0.9952 -0.0980 -0.0000
vn -0.9569 -0.2903 -0.0000
vn -0.8819 -0.4714 -0.0000
vn -0.7730 -0.6344 -0.0000
vn -0.6344 -0.7730 -0.0000
vn -0.4714 -0.8819 -0.0000
vn -0.2903 -0.9569 -0.0000
vn -0.0980 -0.9952 -0.0000
vn 0.0980 -0.9952 -0.0000
vn 0.2903 -0.9569 -0.0000
vn 0.4714 -0.8819 -0.0000
vn 0.6344 -0.7730 -0.0000
vn 0.7730 -0.6344 -0.0000
vn 0.8819 -0.4714 -0.0000
vn 0.9569 -0.2903 -0.0000
vn 0.9952 -0.0980 -0.0000
vn 0.9952 0.0980 0.0000
vn 0.9569 0.2903 0.0000
vn 0.8819 0.4714 0.0000
vn 0.7730 0.6344 0.0000
vn 0.6344 0.7730 0.0000
vn 0.4714 0.8819 0.0000
vn 0.2903 0.9569 0.0000
vn 0.0980 0.9952 0.0000
usemtl None
s 1
f 1/1/1 4/2/1 3/3/1 2/4/1
f 4/2/2 6/5/2 5/6/2 3/3/2
f 6/7/3 8/8/3 7/9/3 5/10/3
f 8/8/4 10/11/4 9/12/4 7/9/4
f 10/11/5 12/13/5 11/14/5 9/12/5
f 12/13/6 14/15/6 13/16/6 11/14/6
f 14/15/7 16/17/7 15/18/7 13/16/7
f 16/17/8 18/19/8 17/20/8 15/18/8
f 18/19/9 20/21/9 19/22/9 17/20/9
f 20/21/10 22/23/10 21/24/10 19/22/10
f 22/23/11 24/25/11 23/26/11 21/24/11
f 24/25/12 26/27/12 25/28/12 23/26/12
f 26/27/13 28/29/13 27/30/13 25/28/13
f 28/29/14 30/31/14 29/32/14 27/30/14
f 30/31/15 32/33/15 31/34/15 29/32/15
f 32/33/16 34/35/16 33/36/16 31/34/16
f 34/35/17 36/37/17 35/38/17 33/36/17
f 36/39/18 38/40/18 37/41/18 35/42/18
f 38/40/19 40/43/19 39/44/19 37/41/19
f 40/43/20 42/45/20 41/46/20 39/44/20
f 42/45/21 44/47/21 43/48/21 41/46/21
f 44/47/22 46/49/22 45/50/22 43/48/22
f 46/49/23 48/51/23 47/52/23 45/50/23
f 48/51/24 50/53/24 49/54/24 47/52/24
f 50/53/25 52/55/25 51/56/25 49/54/25
f 52/57/26 54/58/26 53/59/26 51/60/26
f 54/58/27 56/61/27 55/62/27 53/59/27
f 56/61/28 58/63/28 57/64/28 55/62/28
f 58/63/29 60/65/29 59/66/29 57/64/29
f 60/65/30 62/67/30 61/68/30 59/66/30
f 62/67/31 64/69/31 63/70/31 61/68/31
f 64/69/32 1/1/32 2/4/32 63/70/32
