# Blender v2.79 (sub 0) OBJ File: ''
# www.blender.org
mtllib cylinder.mtl
o Cylinder
v 1.000000 -0.000000 -1.000000
v -1.000000 0.000000 -1.000000
v 1.000000 0.195090 -0.980785
v -1.000000 0.195090 -0.980785
v 1.000000 0.382683 -0.923880
v -1.000000 0.382684 -0.923880
v 1.000000 0.555570 -0.831470
v -1.000000 0.555570 -0.831470
v 1.000000 0.707107 -0.707107
v -1.000000 0.707107 -0.707107
v 1.000000 0.831470 -0.555570
v -1.000000 0.831470 -0.555570
v 1.000000 0.923879 -0.382683
v -1.000000 0.923880 -0.382683
v 1.000000 0.980785 -0.195090
v -1.000000 0.980785 -0.195090
v 1.000000 1.000000 -0.000000
v -1.000000 1.000000 -0.000000
v 1.000000 0.980785 0.195090
v -1.000000 0.980785 0.195090
v 1.000000 0.923880 0.382683
v -1.000000 0.923880 0.382683
v 1.000000 0.831470 0.555570
v -1.000000 0.831470 0.555570
v 1.000000 0.707107 0.707107
v -1.000000 0.707107 0.707107
v 1.000000 0.555570 0.831470
v -1.000000 0.555570 0.831470
v 1.000000 0.382683 0.923880
v -1.000000 0.382683 0.923880
v 1.000000 0.195090 0.980785
v -1.000000 0.195090 0.980785
v 1.000000 -0.000000 1.000000
v -1.000000 -0.000000 1.000000
v 1.000000 -0.195091 0.980785
v -1.000000 -0.195091 0.980785
v 1.000000 -0.382684 0.923879
v -1.000000 -0.382684 0.923879
v 1.000000 -0.555571 0.831469
v -1.000000 -0.555571 0.831469
v 1.000000 -0.707107 0.707106
v -1.000000 -0.707107 0.707106
v 1.000000 -0.831470 0.555570
v -1.000000 -0.831470 0.555570
v 1.000000 -0.923880 0.382683
v -1.000000 -0.923880 0.382683
v 1.000000 -0.980785 0.195089
v -1.000000 -0.980785 0.195089
v 1.000000 -1.000000 -0.000001
v -1.000000 -1.000000 -0.000001
v 1.000000 -0.980785 -0.195091
v -1.000000 -0.980785 -0.195091
v 1.000000 -0.923879 -0.382684
v -1.000000 -0.923879 -0.382684
v 1.000000 -0.831469 -0.555571
v -1.000000 -0.831469 -0.555571
v 1.000000 -0.707106 -0.707108
v -1.000000 -0.707106 -0.707108
v 1.000000 -0.555569 -0.831470
v -1.000000 -0.555569 -0.831470
v 1.000000 -0.382682 -0.923880
v -1.000000 -0.382682 -0.923880
v 1.000000 -0.195089 -0.980786
v -1.000000 -0.195089 -0.980786
vt 0.749972 1.006341
vt 0.718726 1.006341
vt 0.718726 0.000056
vt 0.749972 0.000056
vt 0.687479 1.006341
vt 0.687479 0.000057
vt 0.656233 1.006341
vt 0.656233 0.000057
vt 0.624987 1.006341
vt 0.624986 0.000057
vt 0.593740 1.006341
vt 0.593740 0.000057
vt 0.562494 1.006341
vt 0.562493 0.000057
vt 0.531248 1.006341
vt 0.531247 0.000057
vt 0.500001 1.006341
vt 0.500000 0.000057
vt 0.468755 1.006342
vt 0.468754 0.000057
vt 0.437509 1.006342
vt 0.437507 0.000057
vt 0.406262 1.006342
vt 0.406261 0.000057
vt 0.375016 1.006342
vt 0.375014 0.000057
vt 0.343769 1.006342
vt 0.343768 0.000058
vt 0.312523 1.006342
vt 0.312521 0.000058
vt 0.281277 1.006343
vt 0.281275 0.000058
vt 0.250030 1.006343
vt 0.250028 0.000058
vt 0.218784 1.006343
vt 0.218782 0.000058
vt 0.187538 1.006343
vt 0.187535 0.000059
vt 0.156291 1.006343
vt 0.156289 0.000059
vt 0.125045 1.006344
vt 0.125042 0.000059
vt 0.093799 1.006344
vt 0.093796 0.000059
vt 0.062552 1.006344
vt 0.062549 0.000060
vt 0.031306 1.006344
vt 0.031303 0.000060
vt 0.000059 1.006345
vt 0.000056 0.000060
vt 0.999943 1.006341
vt 0.968697 1.006341
vt 0.968697 0.000057
vt 0.999944 0.000057
vt 0.937450 1.006341
vt 0.937451 0.000057
vt 0.906204 1.006341
vt 0.906204 0.000056
vt 0.874957 1.006341
vt 0.874958 0.000056
vt 0.843711 1.006341
vt 0.843711 0.000056
vt 0.812465 1.006341
vt 0.812465 0.000056
vt 0.781218 1.006341
vt 0.781218 0.000056
vn 0.0000 -0.0980 0.9952
vn -0.0000 -0.2903 0.9569
vn -0.0000 -0.4714 0.8819
vn -0.0000 -0.6344 0.7730
vn -0.0000 -0.7730 0.6344
vn -0.0000 -0.8819 0.4714
vn -0.0000 -0.9569 0.2903
vn -0.0000 -0.9952 0.0980
vn -0.0000 -0.9952 -0.0980
vn -0.0000 -0.9569 -0.2903
vn -0.0000 -0.8819 -0.4714
vn -0.0000 -0.7730 -0.6344
vn -0.0000 -0.6344 -0.7730
vn -0.0000 -0.4714 -0.8819
vn -0.0000 -0.2903 -0.9569
vn 0.0000 -0.0980 -0.9952
vn 0.0000 0.0980 -0.9952
vn 0.0000 0.2903 -0.9569
vn 0.0000 0.4714 -0.8819
vn 0.0000 0.6344 -0.7730
vn 0.0000 0.7730 -0.6344
vn 0.0000 0.8819 -0.4714
vn 0.0000 0.9569 -0.2903
vn 0.0000 0.9952 -0.0980
vn 0.0000 0.9952 0.0980
vn 0.0000 0.9569 0.2903
vn 0.0000 0.8819 0.4714
vn 0.0000 0.7730 0.6344
vn 0.0000 0.6344 0.7730
vn 0.0000 0.4714 0.8819
vn 0.0000 0.2903 0.9569
vn 0.0000 0.0980 0.9952
usemtl None
s off
f 1/1/1 3/2/1 4/3/1 2/4/1
f 3/2/2 5/5/2 6/6/2 4/3/2
f 5/5/3 7/7/3 8/8/3 6/6/3
f 7/7/4 9/9/4 10/10/4 8/8/4
f 9/9/5 11/11/5 12/12/5 10/10/5
f 11/11/6 13/13/6 14/14/6 12/12/6
f 13/13/7 15/15/7 16/16/7 14/14/7
f 15/15/8 17/17/8 18/18/8 16/16/8
f 17/17/9 19/19/9 20/20/9 18/18/9
f 19/19/10 21/21/10 22/22/10 20/20/10
f 21/21/11 23/23/11 24/24/11 22/22/11
f 23/23/12 25/25/12 26/26/12 24/24/12
f 25/25/13 27/27/13 28/28/13 26/26/13
f 27/27/14 29/29/14 30/30/14 28/28/14
f 29/29/15 31/31/15 32/32/15 30/30/15
f 31/31/16 33/33/16 34/34/16 32/32/16
f 33/33/17 35/35/17 36/36/17 34/34/17
f 35/35/18 37/37/18 38/38/18 36/36/18
f 37/37/19 39/39/19 40/40/19 38/38/19
f 39/39/20 41/41/20 42/42/20 40/40/20
f 41/41/21 43/43/21 44/44/21 42/42/21
f 43/43/22 45/45/22 46/46/22 44/44/22
f 45/45/23 47/47/23 48/48/23 46/46/23
f 47/47/24 49/49/24 50/50/24 48/48/24
f 49/51/25 51/52/25 52/53/25 50/54/25
f 51/52/26 53/55/26 54/56/26 52/53/26
f 53/55/27 55/57/27 56/58/27 54/56/27
f 55/57/28 57/59/28 58/60/28 56/58/28
f 57/59/29 59/61/29 60/62/29 58/60/29
f 59/61/30 61/63/30 62/64/30 60/62/30
f 61/63/31 63/65/31 64/66/31 62/64/31
f 63/65/32 1/1/32 2/4/32 64/66/32
